<svg viewBox="0 0 1920 1920" xmlns="http://www.w3.org/2000/svg" xmlns:xlink="http://www.w3.org/1999/xlink" overflow="hidden"><path d="M341.067 800C412.427 524.4 662.421 320 960.017 320 1240.97 320 1479.61 502.24 1565.53 754.48L1360.01 960 1840 960 1840 480 1688.56 631.44C1562.89 353.92 1283.93 160 960.016 160 573.703 160 250.51 435.28 176.19 800L341.067 800ZM1578.93 1120C1507.57 1395.6 1257.58 1600 959.983 1600 679.109 1600 440.393 1417.76 354.475 1165.52L559.99 960 80 960 80 1440 231.437 1288.56C357.115 1566.08 636.07 1760 959.984 1760 1346.3 1760 1669.49 1484.72 1743.89 1120L1578.93 1120ZM1341.42 701.44 1199.98 560 950.704 809.36 701.43 560 559.99 701.44 809.346 950.72 559.99 1200 701.428 1341.44 950.703 1092.16 1199.98 1341.44 1341.42 1200 1092.14 950.72 1341.42 701.44Z" fill-rule="evenodd"/></svg>