<svg viewBox="0 0 1920 1920" xmlns="http://www.w3.org/2000/svg" xmlns:xlink="http://www.w3.org/1999/xlink" id="Layer_1" overflow="hidden"><path d="M341.1 800C412.4 524.4 662.4 320 960 320 1241 320 1479.6 502.2 1565.5 754.5L1360 960 1840 960 1840 480 1688.6 631.4C1562.9 353.9 1283.9 160 960 160 573.7 160 250.5 435.3 176.2 800L341.1 800ZM1578.9 1120C1507.5 1395.6 1257.5 1600 960 1600 679.1 1600 440.4 1417.8 354.5 1165.5L560 960 80 960 80 1440 231.4 1288.6C357.1 1566.1 636.1 1760 960 1760 1346.3 1760 1669.5 1484.7 1743.9 1120L1578.9 1120ZM892.8 1354.2 569.3 1030.8 710.7 889.4 867.3 1046 1198.7 582.1 1361.4 698.3 892.8 1354.2Z" fill="#03893D"/></svg>