<?xml version="1.0" encoding="UTF-8" standalone="no"?>
<svg
   width="36"
   height="36"
   viewBox="0 0 36 36"
   version="1.1"
   id="svg5"
   sodipodi:docname="progress-check.svg"
   inkscape:export-filename="maybe_00001.png"
   inkscape:export-xdpi="682.66669"
   inkscape:export-ydpi="682.66669"
   inkscape:version="1.4.3 (0d15f75, 2025-12-25)"
   xmlns:inkscape="http://www.inkscape.org/namespaces/inkscape"
   xmlns:sodipodi="http://sodipodi.sourceforge.net/DTD/sodipodi-0.dtd"
   xmlns="http://www.w3.org/2000/svg"
   xmlns:svg="http://www.w3.org/2000/svg">
  <defs
     id="defs5" />
  <sodipodi:namedview
     id="namedview5"
     pagecolor="#ffffff"
     bordercolor="#000000"
     borderopacity="0.25"
     inkscape:showpageshadow="2"
     inkscape:pageopacity="0.0"
     inkscape:pagecheckerboard="0"
     inkscape:deskcolor="#d1d1d1"
     inkscape:zoom="11.527983"
     inkscape:cx="24.592333"
     inkscape:cy="29.103096"
     inkscape:window-width="1920"
     inkscape:window-height="1009"
     inkscape:window-x="-8"
     inkscape:window-y="-8"
     inkscape:window-maximized="1"
     inkscape:current-layer="svg5" />
  <path
     fill-rule="nonzero"
     fill="#dff4ff"
     fill-opacity="1"
     d="m 36,18 c 0,0.589844 -0.02734,1.175781 -0.08594,1.765625 -0.05859,0.585937 -0.144531,1.167969 -0.261718,1.746094 -0.113282,0.578125 -0.257813,1.148437 -0.425782,1.714843 -0.171874,0.5625 -0.371093,1.117188 -0.597656,1.660157 -0.226562,0.546875 -0.476562,1.078125 -0.753906,1.597656 -0.277344,0.519531 -0.582031,1.027344 -0.910156,1.515625 -0.324219,0.492188 -0.675782,0.964844 -1.050782,1.417969 -0.375,0.457031 -0.769531,0.894531 -1.1875,1.308593 -0.414062,0.417969 -0.851562,0.8125 -1.308593,1.1875 -0.453125,0.375 -0.925781,0.726563 -1.417969,1.050782 -0.488281,0.328125 -0.996094,0.632812 -1.515625,0.910156 -0.519531,0.277344 -1.050781,0.527344 -1.597656,0.753906 -0.542969,0.226563 -1.097657,0.425782 -1.660157,0.597656 -0.566406,0.167969 -1.136718,0.3125 -1.714843,0.425782 -0.578125,0.117187 -1.160157,0.203125 -1.746094,0.261718 C 19.175781,35.972656 18.589844,36 18,36 17.410156,36 16.824219,35.97266 16.234375,35.91406 15.648438,35.85547 15.066406,35.769529 14.488281,35.652342 13.910156,35.53906 13.339844,35.394529 12.773438,35.22656 12.210938,35.054686 11.65625,34.855467 11.113281,34.628904 10.566406,34.402344 10.035156,34.152344 9.515625,33.875 8.996094,33.597656 8.488281,33.292969 8,32.964844 7.507812,32.640625 7.035156,32.289062 6.582031,31.914062 6.125,31.539062 5.6875,31.144531 5.273438,30.726562 4.855469,30.3125 4.460938,29.875 4.085938,29.417969 3.710938,28.964844 3.359375,28.492188 3.035156,28 2.707031,27.511719 2.402344,27.003906 2.125,26.484375 1.847656,25.964844 1.597656,25.433594 1.371094,24.886719 1.144531,24.34375 0.945312,23.789062 0.773438,23.226562 0.605469,22.660156 0.460938,22.089844 0.347656,21.511719 0.230469,20.933594 0.144531,20.351562 0.085938,19.765625 0.027344,19.175781 0,18.589844 0,18 0,17.410156 0.027344,16.824219 0.085938,16.234375 0.144531,15.648438 0.230469,15.066406 0.347656,14.488281 0.460938,13.910156 0.605469,13.339844 0.773438,12.773438 0.945312,12.210938 1.144531,11.65625 1.371094,11.113281 1.597656,10.566406 1.847656,10.035156 2.125,9.515625 2.402344,8.996094 2.707031,8.488281 3.035156,8 3.359375,7.507812 3.710938,7.035156 4.085938,6.582031 4.460938,6.125 4.855469,5.6875 5.273438,5.273438 5.6875,4.855469 6.125,4.460938 6.582031,4.085938 7.035156,3.710938 7.507812,3.359375 8,3.035156 8.488281,2.707031 8.996094,2.402344 9.515625,2.125 10.035156,1.847656 10.566406,1.597656 11.113281,1.371094 11.65625,1.144531 12.210938,0.945312 12.773438,0.773438 13.339844,0.605469 13.910156,0.460938 14.488281,0.347656 15.066406,0.230469 15.648438,0.144531 16.234375,0.085938 16.824219,0.027344 17.410156,0 18,0 c 0.589844,0 1.175781,0.027344 1.765625,0.085938 0.585937,0.058593 1.167969,0.144531 1.746094,0.261718 0.578125,0.113282 1.148437,0.257813 1.714843,0.425782 0.5625,0.171874 1.117188,0.371093 1.660157,0.597656 0.546875,0.226562 1.078125,0.476562 1.597656,0.753906 0.519531,0.277344 1.027344,0.582031 1.515625,0.910156 0.492188,0.324219 0.964844,0.675782 1.417969,1.050782 0.457031,0.375 0.894531,0.769531 1.308593,1.1875 0.417969,0.414062 0.8125,0.851562 1.1875,1.308593 0.375,0.453125 0.726563,0.925781 1.050782,1.417969 0.328125,0.488281 0.632812,0.996094 0.910156,1.515625 0.277344,0.519531 0.527344,1.050781 0.753906,1.597656 0.226563,0.542969 0.425782,1.097657 0.597656,1.660157 0.167969,0.566406 0.3125,1.136718 0.425782,1.714843 0.117187,0.578125 0.203125,1.160157 0.261718,1.746094 C 35.972656,16.824219 36,17.410156 36,18 Z m 0,0"
     id="path1" />
  <path
     fill-rule="evenodd"
     fill="#ffffff"
     fill-opacity="1"
     d="m 12.910156,11.570312 10.734375,0.351563 c 0,0 1.542969,14.976563 1.828125,16.546875 0.289063,1.570312 -0.757812,2.371094 -1.742187,2.769531 -0.988281,0.402344 -4.707031,1.296875 -8.25,1.210938 -3.542969,-0.08594 -6.066407,-0.976563 -7.128907,-1.65625 -1.0625,-0.679688 -0.804687,-1.394531 -0.6875,-1.777344 0.175782,-0.582031 5.246094,-17.445313 5.246094,-17.445313 z m 0,0"
     id="path2" />
  <path
     fill-rule="nonzero"
     fill="#0076c4"
     fill-opacity="1"
     d="m 20.617188,30.851562 c 3.921874,0 7.101562,-0.980468 7.101562,-2.191406 0,-1.210937 -3.179688,-2.191406 -7.101562,-2.191406 -3.921876,0 -7.097657,0.980469 -7.097657,2.191406 0,1.210938 3.175781,2.191406 7.097657,2.191406 z m 0,0"
     id="path3" />
  <path
     fill-rule="evenodd"
     fill="#0076c4"
     fill-opacity="1"
     d="m 12.414062,13 3.363282,-9.765625 7.167968,0.851563 1.027344,10.363281 z m 0,0"
     id="path4" />
  <path
     fill-rule="evenodd"
     fill="#151515"
     fill-opacity="1"
     d="m 23.269531,6.152344 h 0.08984 c 0.01563,0.101562 0.03125,0.210937 0.04687,0.3125 -0.04297,0.03125 -0.05859,0.08594 -0.04687,0.136718 h 0.04687 v 0.08984 h 0.04297 c -0.01172,0.04687 -0.03125,0.08984 -0.04297,0.136719 h 0.04297 l 0.08984,0.269531 0.136719,0.04297 c 0.05859,0.222656 0.234375,0.226563 0.269531,0.496094 h 0.08984 c 0.01172,0.03125 0.03125,0.05859 0.04297,0.08984 H 24.125 v 0.08984 l 0.179688,0.136719 v 0.08984 l 0.136718,0.08984 v 0.08984 h 0.04297 c 0.06641,0.07422 0.117187,0.167969 0.136719,0.269532 h 0.08984 c 0.07812,0.367187 0.453124,0.441406 0.539062,0.808593 0.125,0.03125 0.09766,0.01563 0.132812,0.136719 h 0.04688 v 0.132812 c 0.125,0.03906 0.113281,0.05469 0.179687,0.136719 h 0.04687 c 0.03906,0.06641 -0.01953,0.140625 0.04297,0.179688 h 0.08984 v 0.08984 c 0.171876,0.09766 0.164063,0.207032 0.269532,0.359376 l 0.136718,0.08984 v 0.08984 l 0.08984,0.04687 v 0.04297 l 0.08984,0.04687 v 0.08984 h 0.04297 c 0.06641,0.08203 0.07422,0.08984 0.08984,0.222656 0.171876,0.05078 0.136719,0.101562 0.226563,0.226562 l 0.136719,0.08984 v 0.08984 h 0.04297 v 0.136718 l 0.269532,0.179688 v 0.08984 l 0.08984,0.04297 v 0.08984 h 0.04687 c 0.07422,0.121094 -0.04297,0.08203 0.132813,0.136719 v 0.08984 c 0.109375,0.07031 0.02734,0.03516 0.08984,0.136719 h 0.04687 v 0.08984 l 0.132812,0.08984 c 0.01563,0.04297 0.03516,0.08984 0.04687,0.132813 h 0.08984 v 0.136718 h 0.04687 c 0.04687,0.04687 0,0.01563 0.08984,0.04297 v 0.08984 c 0.246094,0.08203 0.03516,0.0625 0.132812,0.226562 l 0.136719,0.04297 v 0.04687 l 0.132813,0.08984 v 0.136719 l 0.269531,0.222656 c 0.01563,0.05859 0.03125,0.121094 0.04687,0.179687 l 0.08984,0.04687 v 0.08984 l 0.136718,0.08984 v 0.08984 L 29.164062,14.25 v 0.136719 c 0.03125,0.01172 0.05859,0.03125 0.08984,0.04297 v 0.09375 c 0.05859,0.04297 0.121094,0.08984 0.179688,0.132812 v 0.08984 c 0.03125,0.01563 0.05859,0.03125 0.08984,0.04687 v 0.04297 c 0.03125,0.01562 0.05859,0.03125 0.08984,0.04687 0.01563,0.05859 0.03125,0.121094 0.04687,0.179688 0.05859,0.04297 0.121094,0.08984 0.179688,0.132812 0.01172,0.04688 0.03125,0.08984 0.04297,0.136719 h 0.08984 v 0.08984 c 0.113282,0.07031 0.07031,0.121094 0.136719,0.179687 l 0.136719,0.04688 c 0.01172,0.05469 0.03125,0.121093 0.04297,0.179687 0.03125,0.01172 0.05859,0.03125 0.08984,0.04297 0.109375,0.117187 0.203125,0.199218 0.226563,0.40625 0.265625,0.07422 0.105469,0.191406 0.222656,0.269531 h 0.08984 v 0.132813 h 0.08984 v 0.09375 c 0.109376,0.07031 0.07031,0.125 0.136719,0.179687 l 0.136719,0.04297 v 0.136718 c 0.101562,0.08984 0.210938,0.179688 0.3125,0.269532 0.125,0.175781 0.0625,0.335937 0.316406,0.402344 v 0.09375 c 0.03125,0.01172 0.05859,0.03125 0.08984,0.04297 0.01172,0.03516 -0.0039,0.07031 -0.03516,0.08594 -0.0039,0 -0.0039,0 -0.01172,0.0039 0.01563,0.04687 0.03125,0.08984 0.04687,0.136719 h -0.04687 v 0.08984 l -0.132813,0.08984 v 0.08984 c -0.04687,0.03125 -0.08984,0.05859 -0.136718,0.08984 v 0.04297 h -0.08984 v 0.04688 l -0.132812,0.08984 v 0.08984 h -0.04688 c -0.07422,0.121094 0.04688,0.08594 -0.132812,0.132813 -0.05469,0.222656 -0.257812,0.285156 -0.316406,0.496093 h -0.136719 c -0.02734,0.121094 -0.05859,0.105469 -0.08984,0.226563 h -0.08984 c -0.04688,0.105468 -0.101563,0.148437 -0.132813,0.269531 h -0.08984 c -0.07813,0.179687 -0.160156,0.308594 -0.359375,0.359375 -0.01563,0.04687 -0.03516,0.08984 -0.04687,0.136719 h -0.04687 v 0.08984 h -0.04297 v 0.08984 l -0.136719,0.08984 v 0.08984 H 29.75 v 0.04297 h -0.08984 c -0.05078,0.04688 -0.03125,0.08984 -0.04687,0.179688 -0.121093,0.02734 -0.101562,0.05859 -0.222656,0.08984 v 0.136718 h -0.08984 c -0.101562,0.195313 -0.316406,0.527344 -0.542969,0.585938 -0.02344,0.15625 -0.07031,0.234375 -0.222656,0.269531 -0.05078,0.234375 -0.175781,0.316407 -0.316406,0.449219 -0.01172,0.03125 -0.03125,0.05859 -0.04297,0.08984 h -0.08984 c -0.01563,0.04687 -0.03125,0.08984 -0.04688,0.136718 l -0.179687,0.132813 v 0.08984 l -0.226563,0.179687 V 23.25 l -0.08984,0.08984 h -0.08984 c -0.04297,0.07813 -0.08984,0.148437 -0.132813,0.226562 l -0.136718,0.04687 v 0.132813 l -0.179688,0.08984 v 0.136718 h -0.04297 c -0.07422,0.09375 -0.08594,0.144532 -0.226563,0.179688 -0.01172,0.07422 -0.03125,0.148437 -0.04297,0.222656 h -0.09375 v 0.08984 c -0.140625,0.03906 -0.09766,0.07031 -0.269531,0.08984 -0.01172,0.09375 -0.03125,0.183593 -0.04297,0.273437 H 26.2383 c -0.125,0.15625 -0.06641,0.01172 -0.179687,0.08984 -0.01172,0.04297 -0.03125,0.08984 -0.04297,0.132812 l -0.136719,0.08984 v 0.08984 c 0,0 -0.08203,0.08203 -0.08984,0.08984 l -0.08984,0.04688 V 25.5 h -0.08984 v 0.08984 h -0.136719 v 0.04687 c -0.183594,0.160156 -0.21875,0.46875 -0.492187,0.539062 -0.05859,0.214844 -0.210938,0.191407 -0.269531,0.40625 h -0.08984 l -0.04687,0.132813 -0.132813,0.08984 v 0.09375 h -0.04687 v 0.08984 l -0.179687,0.08984 c -0.01563,0.05859 -0.03125,0.121094 -0.04687,0.179687 H 24.125 L 23.988281,27.4375 h -0.08984 l -0.08984,0.08984 v 0.08984 l -0.269532,0.222656 v 0.136718 h -0.04297 c -0.101563,0.144532 -0.246094,0.25 -0.40625,0.316407 v -0.04687 c -0.144537,-0.07422 -0.26563,-0.183591 -0.35938,-0.316403 h -0.04687 v -0.08984 h 0.04687 C 22.761719,27.707031 22.914062,27.527344 23,27.4375 l 0.08984,-0.04687 v -0.08984 l 0.226562,-0.179687 v -0.04297 l 0.179688,-0.04687 v -0.179688 l 0.179687,-0.136718 c 0.01172,-0.04297 0.03125,-0.08984 0.04297,-0.132813 h 0.08984 c 0.05078,-0.183593 0.03125,-0.04687 0.136718,-0.136719 v -0.04297 h 0.04297 V 26.3125 c 0.0625,-0.121094 0.179688,-0.203125 0.316407,-0.226562 v -0.132813 l 0.539062,-0.488281 c 0.08984,-0.148438 -0.07422,-0.152344 0.179688,-0.222656 0.01953,-0.105469 0.0625,-0.195313 0.136718,-0.273438 L 25.25,24.925781 c 0.04297,-0.07422 -0.01563,-0.136719 0.04297,-0.179687 l 0.179687,-0.04687 c 0.136719,-0.09375 0.04297,-0.210938 0.273438,-0.269531 0.03516,-0.152344 0.175781,-0.351563 0.269531,-0.449219 l 0.08984,-0.04687 v -0.08984 l 0.132812,-0.08984 c 0.105469,-0.117187 0.02734,-0.175781 0.226563,-0.222656 v -0.08984 l 0.316406,-0.269531 v -0.08984 h 0.04297 c 0.01563,-0.03125 0.03125,-0.05859 0.04687,-0.08984 h 0.08984 v -0.136719 c 0.117187,-0.06641 0.152343,-0.144531 0.3125,-0.179688 0.01562,-0.128906 0.05078,-0.261719 0.136718,-0.316406 0.06641,-0.04297 0.132813,0.01953 0.179688,-0.04297 v -0.136718 h 0.04297 v -0.08984 l 0.183594,-0.132813 v -0.08984 l 0.132813,-0.08984 0.04687,-0.09375 h 0.08984 c 0.01172,-0.04297 0.03125,-0.08984 0.04297,-0.132813 l 0.179688,-0.136719 v -0.08984 c 0.07422,-0.136719 0.207031,-0.238281 0.359375,-0.269531 0.01953,-0.09766 0.07031,-0.191407 0.136719,-0.269532 h 0.04297 v -0.08984 l 0.136719,-0.08984 c 0.01563,-0.04687 0.03125,-0.08984 0.04687,-0.136719 0.07813,-0.04687 0.171875,0.03516 0.222656,-0.04297 0.101563,-0.152343 -0.101562,-0.234375 0.179688,-0.316406 0.05078,-0.04687 0,-0.01563 0.08984,-0.04297 0.01562,-0.04687 0.03125,-0.08984 0.04687,-0.136718 h 0.04297 c 0.01563,-0.05859 0.03125,-0.121094 0.04687,-0.179688 L 29.75,19.707031 c 0.05859,-0.07813 0.121094,-0.148437 0.179688,-0.226562 l 0.136718,-0.04687 c 0.04687,-0.03906 0.113282,-0.230469 0.132813,-0.3125 h 0.08984 c 0.04688,-0.152344 0.05469,-0.08594 0.136719,-0.179688 h 0.04297 v -0.136718 c 0.125,-0.03125 0.101562,-0.01172 0.136719,-0.132813 0.179687,-0.05078 0.05859,-0.01563 0.132812,-0.136719 h 0.04687 v -0.08984 l 0.08984,-0.08984 h 0.08984 c 0.06641,-0.05469 0.125,-0.285157 0.132812,-0.40625 -0.140625,-0.08984 -0.171875,-0.21875 -0.269531,-0.359375 -0.03125,-0.01172 -0.05859,-0.03125 -0.08984,-0.04297 v -0.08984 c -0.07422,-0.05859 -0.148437,-0.121093 -0.222656,-0.179687 v -0.09375 c -0.04687,-0.03125 -0.08984,-0.05469 -0.136719,-0.08984 v -0.08984 c -0.05859,-0.04297 -0.121094,-0.08984 -0.179687,-0.132812 v -0.08984 c -0.03125,-0.01563 -0.05859,-0.03125 -0.08984,-0.04687 v -0.08984 c -0.03125,-0.01172 -0.05859,-0.03125 -0.08984,-0.04297 C 29.925781,16.5 29.863281,16.375 29.839844,16.242188 c -0.234375,-0.06641 -0.296875,-0.261719 -0.40625,-0.453126 h -0.04297 c -0.01563,-0.05859 -0.03125,-0.121093 -0.04687,-0.179687 -0.05859,-0.03125 -0.121094,-0.05859 -0.179688,-0.08984 v -0.08984 l -0.08984,-0.04297 c -0.01172,-0.05859 -0.03125,-0.121094 -0.04297,-0.179688 l -0.136719,-0.04687 c -0.01172,-0.04297 -0.03125,-0.08984 -0.04687,-0.132812 l -0.179698,-0.13673 C 28.65625,14.8125 28.636719,14.742188 28.625,14.664062 h -0.04687 l -0.04297,-0.08984 h -0.08984 l -0.08984,-0.08984 v -0.08984 l -0.08984,-0.04297 v -0.08984 l -0.136719,-0.08984 c -0.07031,-0.08203 -0.199218,-0.285156 -0.222656,-0.40625 -0.113281,-0.03125 -0.07422,-0.02344 -0.136719,-0.08984 h -0.04687 v -0.08984 h -0.04297 v -0.136719 l -0.08984,-0.04297 v -0.08984 l -0.136719,-0.08984 v -0.04687 h -0.08984 c -0.01172,-0.04297 -0.03125,-0.08984 -0.04297,-0.132813 L 27.230469,13 c -0.05469,-0.05859 -0.07813,-0.128906 -0.136719,-0.179688 v -0.136718 h -0.132812 v -0.04297 h -0.04688 v -0.179687 h -0.08984 v -0.08984 c -0.05469,-0.04297 -0.05078,-0.105469 -0.08984,-0.136719 h -0.08984 l -0.08984,-0.08984 v -0.08984 l -0.136719,-0.08984 V 11.875 l -0.132813,-0.08984 c -0.01563,-0.04297 -0.03125,-0.08984 -0.04687,-0.132812 h -0.04297 c -0.09375,-0.113282 -0.160156,-0.171875 -0.179687,-0.363282 h -0.08984 v -0.08984 h -0.08984 c -0.01563,-0.04297 -0.03125,-0.08984 -0.04688,-0.132813 l -0.132812,-0.08984 v -0.08984 c -0.05859,-0.04687 -0.125,-0.08984 -0.183594,-0.136719 -0.03125,-0.08984 -0.05469,-0.179688 -0.08984,-0.269531 l -0.269531,-0.179688 v -0.08984 l -0.08984,-0.04688 V 10.03125 L 24.843774,9.94141 V 9.85157 L 24.710962,9.76173 V 9.67189 L 24.574243,9.58205 V 9.49221 L 24.484403,9.44533 V 9.308612 h -0.04297 L 24.347683,9.175799 24.214871,9.128929 V 9.039089 L 24.125,8.996094 V 8.906254 L 23.945312,8.769535 c -0.01562,-0.07422 -0.03125,-0.148437 -0.04687,-0.222656 L 23.765625,8.5 c -0.01563,-0.03125 -0.03125,-0.05859 -0.04687,-0.08984 h -0.04297 V 8.32032 l -0.04687,0.04688 h -0.04297 v 0.179687 c 0.144531,0.136719 0.03125,0.195313 0.08984,0.402344 h 0.04297 v 0.04687 h -0.04297 v 0.04297 c 0.04687,0.117188 0.0078,0.253907 0.04297,0.40625 h 0.04687 c 0.01563,0.08984 -0.08594,0.171876 -0.04687,0.316407 h 0.04687 v 0.179687 h 0.04297 v 0.179688 l 0.269531,0.222656 c 0.01563,0.05859 0.03125,0.125 0.04687,0.183594 l 0.08984,0.04297 v 0.08984 l 0.226562,0.136719 v 0.132813 l 0.132813,0.08984 c 0.125,0.179688 0.109375,0.382813 0.359375,0.449219 0.04297,0.15625 0.140625,0.207031 0.226562,0.316406 h 0.04297 v 0.136719 l 0.08984,0.04297 c 0.08203,0.08984 0.117187,0.15625 0.136719,0.316406 0.261718,0.05859 0.195312,0.140625 0.316406,0.3125 l 0.132812,0.08984 v 0.09375 h 0.04687 c 0.07422,0.121094 -0.04687,0.07813 0.132813,0.132812 0.04687,0.210938 0.175781,0.265625 0.226562,0.496094 H 26.375 v 0.04297 l 0.269531,0.226562 v 0.08984 l 0.179688,0.136719 v 0.08984 l 0.08984,0.04297 V 14.125 l 0.226563,0.179688 v 0.08984 l 0.222656,0.179688 v 0.08984 l 0.08984,0.04688 v 0.08984 l 0.08984,0.04297 c 0.08203,0.08984 0.117187,0.160156 0.136719,0.316406 h 0.08984 c 0.01172,0.04687 0.03125,0.08984 0.04687,0.136719 h 0.04297 v 0.132813 l 0.136719,0.08984 v 0.04687 h 0.08984 v 0.04297 l 0.132812,0.08984 c 0.05859,0.07422 -0.03516,0.02734 0.04687,0.08984 v 0.179688 c 0.183594,0.04687 0.175781,0.140625 0.269531,0.273438 h 0.04297 c 0.0625,0.07422 0.105469,0.105468 0.136719,0.222656 0.125,0.03125 0.09766,0.01563 0.132812,0.136718 0.05078,0.04688 0.01953,0 0.04687,0.08984 0.171875,0.05469 0.0625,0.0078 0.136719,0.132813 h 0.04297 v 0.136719 h 0.04687 c 0.01172,0.03125 0.03125,0.05859 0.04297,0.08984 h 0.08984 v 0.04297 l 0.136719,0.08984 c 0.03906,0.07031 -0.01953,0.140625 0.04297,0.183594 h 0.08984 V 17.457 c 0.179687,0.09375 0.425781,0.296875 0.449218,0.539063 -0.152344,0.132812 -0.15625,0.339844 -0.402344,0.40625 -0.01562,0.06641 -0.04687,0.128906 -0.08984,0.179687 h -0.04687 v 0.08984 h -0.04297 c -0.03125,0.04297 -0.05859,0.08984 -0.08984,0.132813 -0.03125,0.01562 -0.05859,0.03125 -0.08984,0.04687 v 0.08984 C 29.132812,19 29.0625,19.0625 28.984375,19.121094 v 0.04297 l -0.136719,0.04688 v 0.08984 h -0.04297 v 0.08984 l -0.08984,0.04297 v 0.09375 h -0.04687 c -0.0625,0.07813 -0.101563,0.105468 -0.132813,0.222656 h -0.08984 l -0.269531,0.316406 -0.08984,0.04297 c -0.01563,0.05859 -0.03125,0.121094 -0.04688,0.179687 l -0.40625,0.363282 v 0.08984 L 27.5,20.832031 c -0.01563,0.04297 -0.03125,0.08984 -0.04687,0.132813 l -0.132813,0.04687 -0.04687,0.08984 -0.222657,0.179688 c -0.01563,0.05859 -0.03125,0.121094 -0.04687,0.179688 l -0.08984,0.04297 v 0.08984 l -0.132812,0.08984 v 0.04687 h -0.08984 l -0.09375,0.136719 h -0.08984 v 0.179687 c -0.08984,0.07422 -0.179687,0.148437 -0.269531,0.222656 v 0.08984 c -0.101562,0.08984 -0.210937,0.179687 -0.3125,0.269531 v 0.08984 l -0.359375,0.316406 V 23.125 l -0.273437,0.226562 v 0.04297 h -0.08984 v 0.179688 c -0.09375,0.05469 -0.09766,0.105469 -0.222656,0.136719 v 0.132812 h -0.04687 c -0.09375,0.109375 -0.125,0.04687 -0.179688,0.226562 h -0.132812 v 0.04688 c -0.08984,0.07812 -0.03906,0.08984 -0.08984,0.179687 h -0.04687 v 0.08984 l -0.269531,0.222656 v 0.08984 l -0.08984,0.04687 -0.269531,0.3125 h -0.08984 l -0.04687,0.09375 h -0.04297 c -0.01563,0.05859 -0.03125,0.121094 -0.04687,0.179687 l -0.222656,0.179688 v 0.132812 h -0.04687 c -0.08594,0.109375 -0.160156,0.183594 -0.316406,0.226563 v 0.132812 c -0.148438,0.08594 -0.199219,0.246094 -0.3125,0.363282 l -0.136719,0.08984 v 0.08984 c -0.152344,0.03906 -0.117188,0.09375 -0.269531,0.132813 -0.02734,0.191406 -0.08594,0.359374 -0.269531,0.40625 -0.02734,0.132812 -0.136719,0.242187 -0.269532,0.269531 -0.03516,0.15625 -0.08203,0.175781 -0.269531,0.179687 -0.128906,-0.203125 -0.34375,-0.171875 -0.359375,-0.496094 0.214844,-0.125 0.277344,-0.421874 0.539062,-0.492187 0.05469,-0.257813 0.253907,-0.339844 0.402344,-0.496094 v -0.04687 l 0.09375,-0.04297 v -0.08984 l 0.269532,-0.226563 c 0.105468,-0.117187 0.07812,-0.21875 0.269531,-0.269531 0.03125,-0.117188 0.07031,-0.144531 0.132812,-0.222656 h 0.04687 c 0.01172,-0.05859 0.03125,-0.125 0.04297,-0.183594 l 0.136719,-0.08984 c 0.01172,-0.04297 0.03125,-0.08984 0.04297,-0.132812 l 0.136719,-0.04687 v -0.08984 l 0.08984,-0.04297 c 0.01563,-0.04687 0.03125,-0.08984 0.04687,-0.136718 l 0.179688,-0.08984 c 0.128906,-0.160156 0.214843,-0.390625 0.449218,-0.449219 l 0.08984,-0.269531 0.132812,-0.04687 c 0.15625,-0.109375 0.132813,-0.300781 0.363282,-0.359375 0.01953,-0.113282 0.05859,-0.253906 0.132812,-0.3125 h 0.08984 l 0.08984,-0.136719 0.08984,-0.04687 c 0.01562,-0.05859 0.03125,-0.121094 0.04687,-0.179688 h 0.04297 c 0.04687,-0.04687 0.07813,-0.109374 0.08984,-0.179687 h 0.08984 c 0.06641,-0.101563 0.144531,-0.07813 0.179687,-0.132813 v -0.136718 h 0.04687 l 0.08984,-0.132813 0.136719,-0.04687 c 0.01172,-0.04297 0.03125,-0.08984 0.04297,-0.132812 h 0.08984 v -0.136719 c 0.207032,-0.128906 0.195313,-0.410156 0.496094,-0.449219 0.03125,-0.117187 0.09375,-0.226562 0.179688,-0.316406 l 0.08984,-0.04297 v -0.08984 l 0.08984,-0.04688 v -0.08984 l 0.316406,-0.269531 v -0.08984 l 0.132813,-0.08984 v -0.08984 h 0.04687 l 0.04297,-0.08984 L 27.5,19.929688 V 19.75 c 0.152344,-0.09375 0.128906,-0.140625 0.222656,-0.269531 l 0.363282,-0.316407 v -0.08984 l 0.132812,-0.08984 c 0.105469,-0.117187 0.02734,-0.167969 0.226562,-0.222656 0.02734,-0.160157 0.07031,-0.234375 0.222657,-0.269531 0.05078,-0.05078 0,-0.01953 0.08984,-0.04688 0.07813,-0.34375 0.265626,-0.183593 0.273438,-0.675781 -0.265625,-0.05859 -0.28125,-0.261719 -0.453125,-0.402343 v -0.183594 h -0.132813 v -0.04297 c -0.113281,-0.105469 -0.03125,-0.125 -0.08984,-0.226563 l -0.136719,-0.08984 v -0.04297 h -0.08984 l -0.08984,-0.08984 v -0.08984 l -0.179687,-0.136718 c -0.08594,-0.140625 0.08203,-0.113282 -0.136719,-0.179688 -0.02344,-0.257812 -0.03906,-0.167968 -0.179687,-0.269531 l -0.08984,-0.136719 -0.08984,-0.04297 v -0.08984 L 27.09375,15.519531 v -0.08984 l -0.132812,-0.08984 V 15.25 L 26.78125,15.117188 c -0.01563,-0.05859 -0.03125,-0.125 -0.04687,-0.183594 l -0.08984,-0.04297 v -0.08984 l -0.08984,-0.04687 c -0.105481,-0.109383 -0.164075,-0.148445 -0.1797,-0.359383 -0.121094,-0.02734 -0.105469,-0.05859 -0.226562,-0.08984 v -0.132813 l -0.269532,-0.226563 v -0.08984 L 25.65625,13.675781 c -0.105469,-0.148437 0,-0.207031 -0.226562,-0.269531 -0.03516,-0.175781 -0.125,-0.292969 -0.226563,-0.40625 l -0.08984,-0.04297 c -0.0625,-0.121093 0.02344,-0.234375 -0.08984,-0.363281 -0.07031,-0.07813 -0.261719,-0.09375 -0.3125,-0.179688 V 12.28125 c -0.07813,-0.05859 -0.148438,-0.121094 -0.226563,-0.179688 v -0.08984 h -0.04297 v -0.08984 h -0.04687 c -0.07813,-0.121094 0.03906,-0.08594 -0.136719,-0.136719 v -0.08984 c -0.164062,-0.04297 -0.152343,-0.09375 -0.222656,-0.226562 h -0.04687 v -0.132812 h -0.04297 c -0.0039,0.359374 0.06641,0.515624 0.132813,0.71875 V 12.73048 H 24.125 v 0.08984 h 0.04297 c -0.01172,0.07813 -0.03125,0.148438 -0.04297,0.226563 0.01172,0.132813 0.03125,0.269531 0.04297,0.402344 h 0.04687 c 0.0078,0.05469 -0.07422,0.07813 -0.04687,0.179687 h 0.04687 v 0.40625 h 0.04297 v 0.136719 h 0.04688 c -0.01172,0.148437 -0.03125,0.300781 -0.04688,0.449219 l -0.13281,0.04296 v 0.04688 h -0.08984 v 0.04297 h -0.226562 v -0.04297 h -0.222656 v -0.04688 h -0.136719 v -0.04297 h -0.04297 v 0.04297 c -0.05078,0.01953 -0.105469,-0.0039 -0.136719,-0.04297 -0.109375,-0.02734 -0.117187,0.05078 -0.179687,0.04297 v -0.04297 l -0.269532,-0.04687 v 0.04687 c -0.175781,0.03906 -0.269531,-0.05859 -0.359374,-0.08984 h -0.457032 v -0.04687 H 21.78125 v -0.04297 c -0.05078,-0.01953 -0.105469,0.0039 -0.136719,0.04297 l -0.316406,-0.04297 c -0.01172,0.160156 -0.08203,0.277344 -0.132813,0.402344 v 0.136719 l -0.136718,0.08984 V 15.25 l -0.132813,0.08984 c -0.01563,0.04687 -0.03125,0.08984 -0.04687,0.136718 h -0.04297 c -0.04297,0.0625 -0.03125,0.179688 -0.08984,0.222657 h -0.08984 l -0.04687,0.08984 h -0.08984 c -0.01172,0.04688 -0.03125,0.08984 -0.04297,0.136719 -0.07812,0.08984 -0.453124,0.261719 -0.632812,0.269531 -0.03125,0.125 -0.01172,0.09766 -0.132812,0.136719 V 16.375 h -0.136719 l -0.04297,0.08984 -0.269531,0.04687 v 0.04297 c -0.136719,0.04297 -0.25,-0.06641 -0.316407,-0.04297 l -0.08984,0.132812 c -0.15625,0.07422 -0.566407,-0.03906 -0.675781,-0.04297 l -0.40625,0.04297 v -0.04297 h -0.08984 v -0.04687 l -0.3125,0.04687 v -0.04687 h -0.226563 v -0.04297 l -0.449219,-0.08984 v -0.08984 l -0.496093,-0.136719 c -0.01172,-0.04297 -0.03125,-0.08984 -0.04297,-0.136718 -0.152344,-0.03125 -0.21875,-0.09766 -0.316406,-0.179688 v -0.04297 H 15.75 l -0.08984,-0.08984 v -0.08984 h -0.04687 c -0.0625,-0.06641 -0.01953,-0.05859 -0.132812,-0.08984 -0.03125,-0.125 -0.01563,-0.101562 -0.136719,-0.136718 -0.01172,-0.04297 -0.03125,-0.08984 -0.04297,-0.132813 h -0.04687 c -0.01172,-0.04687 -0.03125,-0.08984 -0.04297,-0.136719 l -0.08984,-0.04297 c -0.01563,-0.05859 -0.03125,-0.125 -0.04687,-0.183594 l -0.132813,-0.08984 v -0.08984 h -0.04687 v -0.08984 h -0.04297 V 14.53125 h -0.04687 v -0.08984 h -0.04297 v -0.226562 h -0.04687 c 0.01563,-0.04297 0.03125,-0.08984 0.04687,-0.132813 l -0.08984,-0.04687 v -0.269531 h 0.04297 c -0.01953,-0.05859 -0.03516,-0.117187 -0.04297,-0.179687 h -0.273437 v -0.04688 c -0.109376,0.01953 -0.316407,0.05469 -0.492188,0 v -0.04297 h -0.226562 v -0.04687 h -0.589844 v -0.04297 h -0.222656 v -0.04687 h -0.316407 v -0.04297 h -0.136719 v -0.04687 c -0.191406,-0.101562 -0.265624,-0.101562 -0.269531,-0.402343 0.05859,-0.03125 0.0625,-0.07422 0.08984,-0.08984 h 0.08984 l 0.04687,-0.09375 h 0.132812 v -0.04297 l 0.226563,0.04297 v 0.04687 l 0.988281,0.04687 v 0.04297 h 0.363281 v 0.04688 h 0.359375 v 0.04297 h 0.359375 v 0.04687 c 0.144531,0.03906 0.230469,-0.06641 0.316407,-0.04687 v 0.04687 H 15.25 V 13 h 0.316406 v 0.04687 h 0.3125 v 0.04297 h 0.453125 v 0.04687 l 0.3125,0.04297 v 0.04687 l 0.359375,-0.04687 v 0.04687 h 0.226563 v 0.04297 c 0.08594,0.02344 0.05859,-0.02344 0.08984,-0.04297 l 0.449219,0.04297 v 0.04687 h 0.136719 v 0.04297 c 0.0625,0.01172 -0.0078,-0.01172 0.04297,-0.04297 l 0.08984,0.04297 v -0.04297 l 0.226563,0.04297 v 0.04687 c 0.03516,0.0039 0.160156,-0.08203 0.269531,-0.04687 v 0.04687 H 18.625 v 0.04297 h 0.449219 v 0.04687 h 0.542969 v 0.04297 h 0.08984 v 0.04688 h 0.269531 v 0.04297 l 0.132813,-0.04297 0.675781,0.04297 v 0.04687 c 0.105469,0.02734 0.121094,-0.05469 0.179688,-0.04687 v 0.04687 h 0.226562 v 0.04297 h 0.3125 v 0.04687 h 0.08984 v 0.04297 h 0.496094 v 0.04687 h 0.08984 v 0.04687 h 0.269531 v -0.04687 c 0.07813,-0.01172 0.07813,0.03906 0.08984,0.04687 h 0.40625 v 0.04297 h 0.136719 v 0.04688 l 0.08984,-0.04688 v 0.04688 c 0.08984,0.01562 0.05859,-0.02344 0.08984,-0.04688 h 0.04297 v 0.04688 h 0.226562 l -0.08984,-1.171876 h -0.04687 c -0.03906,-0.144531 0.0625,-0.234374 0.04687,-0.316406 h -0.04687 v -0.08984 h -0.04297 v -0.269531 h -0.04687 c -0.0078,-0.03125 -0.04297,-0.402343 -0.04297,-0.402343 h 0.04297 v -0.04688 h -0.04297 v -0.457031 h -0.04687 V 10.875 h -0.04297 V 10.515625 H 23.125 V 10.335938 H 23.08203 V 10.203125 H 23.03516 V 9.347656 h -0.04297 v -0.04687 h 0.04297 V 9.03125 L 22.94532,8.98828 C 22.96095,8.89844 22.97657,8.804687 22.9922,8.714843 H 22.94532 V 8.625 H 22.90235 V 8.222656 H 22.85548 V 7.773438 H 22.8125 V 7.457031 h -0.04687 v -0.40625 h -0.04687 v -0.3125 H 22.67579 V 6.152344 H 22.62892 V 5.925781 H 22.58595 V 5.523438 H 22.53907 V 5.070312 H 22.4961 c 0.01172,-0.07422 0.03125,-0.148437 0.04297,-0.222656 H 22.4961 V 4.710938 h -0.04687 v -0.3125 c -0.01172,-0.05859 -0.03125,-0.125 -0.04297,-0.183594 h 0.04297 c 0.07813,-0.238282 0.09766,-0.304688 0.40625,-0.3125 0.125,0.144531 0.257812,0.128906 0.269531,0.402344 h 0.04687 v 0.04687 H 23.125 c -0.01563,0.05078 0,0.101563 0.04687,0.136719 -0.01563,0.04297 -0.03125,0.08984 -0.04687,0.132813 h 0.04687 v 0.08984 h 0.04297 v 0.496093 h 0.04687 c -0.01563,0.07422 -0.03125,0.148438 -0.04687,0.222657 h 0.04687 v 0.09375 h 0.04297 c -0.01172,0.07422 -0.03125,0.148437 -0.04297,0.222656 h 0.04297 c -0.0078,0.136718 -0.02344,0.269531 -0.03516,0.40625 z m -7.789062,7.613281 c 0.01172,0.195313 0.03125,0.390625 0.04297,0.585937 h 0.04687 v 0.08984 h 0.04297 v 0.132813 l 0.08984,0.04687 c 0.06641,0.09375 0.109375,0.203125 0.136719,0.3125 0.257812,0.07031 0.08984,0.09375 0.179687,0.226562 0.07422,0.109375 0.167969,-0.0039 0.226563,0.226563 0.214844,0.01172 0.238281,0.07813 0.359375,0.179687 v 0.04297 h 0.08984 v 0.04687 l 0.179688,0.04297 v 0.04687 l 0.316406,0.04297 v 0.04688 h 0.179688 v 0.04297 h 0.179687 v 0.04687 h 0.04297 v -0.04687 h 0.04687 v 0.04687 h 0.179687 v 0.04297 l 0.08984,-0.04297 v 0.04297 h 0.585938 v 0.04687 h 0.04297 v -0.04687 h 0.136719 v -0.04297 L 19.125,15.878906 c 0.01172,-0.03125 0.03125,-0.05859 0.04687,-0.08984 h 0.08984 v -0.04297 l 0.402343,-0.136719 0.04688,-0.08984 0.132812,-0.04297 v -0.04687 h 0.136719 l 0.269531,-0.3125 0.08984,-0.04688 0.08984,-0.269531 0.08984,-0.04687 v -0.08984 h 0.04687 v -0.08984 h 0.04297 v -0.08984 h 0.04687 l -0.04687,-0.08984 h 0.04687 v -0.04297 h -0.136719 c -0.04297,-0.04297 -0.652343,-0.164062 -0.765625,-0.136718 -0.02734,0.04687 -0.08594,0.0625 -0.132812,0.04687 v -0.04687 h -0.08984 v -0.04297 c -0.109375,-0.03906 -0.246094,0.04687 -0.269531,0.04297 v -0.04297 H 19.078125 V 14.125 c -0.05469,-0.0078 -0.07422,0.07422 -0.179687,0.04687 V 14.125 l -0.449219,-0.04297 v -0.04687 c -0.05859,-0.0078 -0.07422,0.07422 -0.179688,0.04687 V 14.03516 H 18 v -0.04297 l -0.449219,-0.04688 c -0.0078,0 -0.01563,0.0625 -0.08984,0.04688 v -0.04688 l -0.226563,-0.04297 v -0.04687 c -0.03516,-0.0078 -0.07422,0.0078 -0.08984,0.04687 l -0.316406,-0.04687 v 0.04687 H 16.648445 V 13.85547 H 16.46875 V 13.8086 l -0.132812,0.04687 V 13.8086 L 16.019531,13.76563 V 13.71876 L 15.886719,13.8086 V 13.76563 H 15.75 v -0.04687 z m -1.175781,15.398437 c 0.160156,0.01563 0.179687,0.05859 0.316406,0.08984 0.01172,0.04687 0.03125,0.08984 0.04297,0.136719 0.1875,0.0078 0.296876,0.04687 0.40625,0.132813 l 0.04688,0.08984 h 0.269531 c 0,0 0,0.02734 0.08984,0.04687 V 29.75 l 0.402344,0.08984 c 0.01563,0.03125 0.03125,0.05859 0.04687,0.08984 l 0.40625,0.04297 v 0.04687 h 0.132813 v 0.04687 h 0.226562 v 0.04297 h 0.269532 v 0.04687 h 0.08984 v 0.04297 l 0.539063,0.04687 v 0.04297 l 0.269531,0.04688 v 0.04297 h 0.04687 v -0.04297 l 0.449219,0.04297 v 0.04687 h 0.226562 v 0.04297 h 0.222657 v 0.04687 h 0.04687 v -0.04687 h 0.04297 v 0.04687 h 0.359375 c 0.06641,-0.01172 -0.01563,-0.04687 0.04687,-0.04687 v 0.04687 h 1.394531 v 0.04297 l 0.40625,-0.04297 v 0.04297 l 0.945313,-0.04297 v -0.04687 l 0.359375,0.04687 v -0.04687 h 0.3125 v -0.04297 h 0.363281 v -0.04687 h 0.269531 v -0.04297 c 0.05469,-0.01172 0.07813,0.08594 0.179688,0.04297 0.01172,-0.03125 0.03125,-0.05859 0.04297,-0.08984 h 0.316406 v -0.04297 h 0.136719 v -0.04687 h 0.04297 l 0.04688,0.04687 v -0.04687 h 0.179687 v -0.04297 h 0.04297 l 0.04687,0.04297 v -0.04297 h 0.179687 v -0.04687 l 0.222656,0.04687 v -0.04687 l 0.316407,-0.04297 v -0.04687 h 0.08984 v -0.04687 h 0.269532 v -0.04297 h 0.08984 v -0.04688 l 0.269531,-0.04297 V 29.79297 L 26.003906,29.75 v -0.04687 h 0.273438 v -0.04297 l 0.179687,-0.04687 0.08984,-0.132812 0.179687,-0.04687 v -0.04297 l 0.132813,0.04297 c 0.01563,-0.04297 0.03125,-0.08984 0.04687,-0.132813 h 0.04297 c 0.07422,-0.08203 0.09766,-0.105469 0.226562,-0.136719 0.05469,-0.300781 0.269531,-0.28125 0.628907,-0.269531 0.07812,0.128907 0.132812,0.128907 0.136718,0.359375 -0.136718,0.09375 -0.01953,0.08594 -0.08984,0.179688 h -0.04687 c -0.04688,0.05078 0,0.01953 -0.08984,0.04687 -0.04297,0.195312 -0.296875,0.394531 -0.539063,0.402343 v 0.08984 c -0.140625,0.03516 -0.207031,0.125 -0.316406,0.183594 l -0.179687,0.04297 v 0.04687 H 26.546875 L 26.5,30.335938 h -0.222656 v 0.04297 l -0.273438,0.08984 v 0.04687 h -0.08984 v 0.04297 H 25.69141 v 0.04687 h -0.08984 v 0.04297 h -0.179687 v 0.04687 h -0.136719 v 0.04297 H 24.96875 v 0.04687 h -0.222656 v 0.04297 H 24.476562 V 30.875 c -0.113281,0.03516 -0.234374,-0.05078 -0.269531,-0.04687 V 30.875 h -0.136719 v 0.04297 h -0.08984 v 0.04687 h -0.359375 l -0.04687,0.08984 -0.269531,-0.04688 v 0.04688 l -0.3125,0.04297 v 0.04687 c -0.03906,0.01172 -0.07813,-0.0078 -0.08984,-0.04687 h -0.04687 v 0.04687 H 22.40625 v 0.04687 h -0.539062 v 0.04297 h -0.453126 l -0.132812,0.04687 v -0.04687 h -0.136719 v 0.04687 h -0.04297 l -0.04687,-0.04687 -0.04297,0.04687 V 31.23436 H 20.875 v -0.04297 h -0.3125 v 0.04297 l -0.273438,-0.04297 v 0.04297 h -0.04297 v -0.04297 c -0.121094,-0.02734 -0.234375,0.04297 -0.269532,0.04297 v -0.04297 h -0.449218 v 0.04297 h -0.04687 v -0.04297 h -0.628907 v -0.04687 h -0.359374 v -0.04687 h -0.08984 v -0.04297 h -0.04687 v 0.04297 H 18.3125 c -0.113281,-0.04687 -0.265625,-0.0039 -0.40625,-0.04297 V 31.0078 l -0.496094,-0.04297 v -0.04687 c -0.05078,-0.01563 -0.101562,0 -0.132812,0.04687 -0.06641,0.0078 0.01563,-0.02734 -0.04687,-0.04687 H 17.09375 V 30.875 h -0.269531 l -0.04297,-0.08984 h -0.269531 l -0.04687,-0.08984 -0.496094,-0.04687 v -0.04297 l -0.179688,-0.04687 v -0.04297 c -0.03516,-0.01563 -0.07031,0.0625 -0.179687,0 l -0.04297,-0.08984 c -0.105468,-0.05469 -0.261718,-0.03125 -0.359375,-0.08984 l -0.04687,-0.08984 H 14.980477 V 30.19925 H 14.84375 v -0.04297 h -0.132812 l -0.08984,-0.136719 -0.269532,-0.04687 c -0.01562,-0.03125 -0.03125,-0.05859 -0.04687,-0.08984 L 14.125,29.839844 14.035156,29.703125 C 13.804688,29.550781 13.5625,29.523438 13.496094,29.210938 h -0.08984 c -0.01563,-0.05859 -0.03125,-0.121094 -0.04687,-0.179688 h -0.04297 v -0.04687 h 0.04297 V 28.625 c 0.128906,-0.07422 0.08203,-0.113281 0.269531,-0.136719 0.113282,0.160157 0.08984,0.01563 0.226563,0.08984 V 28.625 l 0.08984,0.04297 v 0.08984 l 0.136719,0.08984 c 0.01172,0.04687 0.03125,0.09375 0.04297,0.136719 h 0.08984 v 0.04687 c 0.06641,0.0625 0.05859,0.01953 0.08984,0.132812 z m 0,0"
     id="path5" />
</svg>
